<svg width="152" height="160" viewBox="0 0 152 160" fill="none" xmlns="http://www.w3.org/2000/svg">
<path d="M72 0L72.0155 79.9213L102.615 6.08961L72.0445 79.9335L128.568 23.4315L72.0664 79.9555L145.91 49.3852L72.0787 79.9845L152 80L72.0787 80.0155L145.91 110.615L72.0664 80.0445L128.568 136.568L72.0445 80.0664L102.615 153.91L72.0155 80.0787L72 160L71.9845 80.0787L41.3852 153.91L71.9555 80.0664L15.4315 136.568L71.9335 80.0445L-1.91039 110.615L71.9213 80.0155L-8 80L71.9213 79.9845L-1.91039 49.3852L71.9335 79.9555L15.4315 23.4315L71.9555 79.9335L41.3852 6.08961L71.9845 79.9213L72 0Z" fill="#F0C3D2" stroke="white" stroke-width="2"/>
</svg>
